<?xml version="1.0" encoding="UTF-8" standalone="no"?>
<!-- Generator: Adobe Illustrator 25.2.3, SVG Export Plug-In . SVG Version: 6.00 Build 0)  -->

<svg
   xmlns:dc="http://purl.org/dc/elements/1.1/"
   xmlns:cc="http://creativecommons.org/ns#"
   xmlns:rdf="http://www.w3.org/1999/02/22-rdf-syntax-ns#"
   xmlns:svg="http://www.w3.org/2000/svg"
   xmlns="http://www.w3.org/2000/svg"
   xmlns:sodipodi="http://sodipodi.sourceforge.net/DTD/sodipodi-0.dtd"
   xmlns:inkscape="http://www.inkscape.org/namespaces/inkscape"
   version="1.1"
   id="Layer_1"
   x="0px"
   y="0px"
   viewBox="0 0 128 128"
   style="enable-background:new 0 0 128 128;"
   xml:space="preserve"
   sodipodi:docname="logo.svg"
   inkscape:export-filename="/home/tom/Code/balloon/app/assets/images/app/logo_large.png"
   inkscape:export-xdpi="384"
   inkscape:export-ydpi="384"
   inkscape:version="0.92.5 (2060ec1f9f, 2020-04-08)"><metadata
   id="metadata110"><rdf:RDF><cc:Work
       rdf:about=""><dc:format>image/svg+xml</dc:format><dc:type
         rdf:resource="http://purl.org/dc/dcmitype/StillImage" /><dc:title></dc:title></cc:Work></rdf:RDF></metadata><defs
   id="defs108" /><sodipodi:namedview
   pagecolor="#ffffff"
   bordercolor="#666666"
   borderopacity="1"
   objecttolerance="10"
   gridtolerance="10"
   guidetolerance="10"
   inkscape:pageopacity="0"
   inkscape:pageshadow="2"
   inkscape:window-width="1366"
   inkscape:window-height="711"
   id="namedview106"
   showgrid="false"
   inkscape:zoom="4.0859375"
   inkscape:cx="21.659656"
   inkscape:cy="64"
   inkscape:window-x="0"
   inkscape:window-y="0"
   inkscape:window-maximized="1"
   inkscape:current-layer="Layer_1" />
<g
   id="图层_1">
	<g
   id="g102">
		<polygon
   style="fill:#E1F5FE;"
   points="4.01,47.94 21.49,21.43 35.03,36.9   "
   id="polygon80" />
		<polygon
   style="fill:#81D4FA;"
   points="44.11,68.26 4.01,47.94 35.03,36.9   "
   id="polygon82" />
		<polygon
   style="fill:#64B5F6;"
   points="63.94,43.06 35.03,36.9 44.11,68.26   "
   id="polygon84" />
		<polygon
   style="fill:#0288D1;"
   points="123.87,47.94 106.39,21.43 92.85,36.9   "
   id="polygon86" />
		<polygon
   style="fill:#81D4FA;"
   points="83.77,68.26 123.87,47.94 92.85,36.9   "
   id="polygon88" />
		<polygon
   style="fill:#E1F5FE;"
   points="63.94,43.06 92.85,36.9 83.77,68.26   "
   id="polygon90" />
		<polygon
   style="fill:#B2EBF2;"
   points="83.77,68.26 63.94,43.06 44.11,68.26   "
   id="polygon92" />
		<polygon
   style="fill:#B3E5FC;"
   points="43,10.06 84.88,10.06 106.39,21.43 92.85,36.9 63.94,43.06 35.03,36.9 21.49,21.43   "
   id="polygon94" />
		<polygon
   style="fill:#1E88E5;"
   points="63.94,117.27 4.01,47.94 44.11,68.26   "
   id="polygon96" />
		<polygon
   style="fill:#B3E5FC;"
   points="63.94,117.27 123.87,47.94 83.77,68.26   "
   id="polygon98" />
		<polygon
   style="fill:#E1F5FE;"
   points="83.77,68.26 83.77,68.26 63.94,117.27 44.11,68.26   "
   id="polygon100" />
	</g>
</g>
</svg>